<svg width="14" height="15" viewBox="0 0 14 15" fill="none" xmlns="http://www.w3.org/2000/svg">
<path d="M11 4.6875V3.75C11 1.68223 9.20559 0 7 0C4.79437 0 3 1.68223 3 3.75V4.6875H0V12.6562C0 13.9507 1.11928 15 2.5 15H11.5C12.8807 15 14 13.9507 14 12.6562V4.6875H11ZM5 3.75C5 2.71611 5.89719 1.875 7 1.875C8.10281 1.875 9 2.71611 9 3.75V4.6875H5V3.75ZM10 7.26562C9.58578 7.26562 9.25 6.95083 9.25 6.5625C9.25 6.17417 9.58578 5.85938 10 5.85938C10.4142 5.85938 10.75 6.17417 10.75 6.5625C10.75 6.95083 10.4142 7.26562 10 7.26562ZM4 7.26562C3.58578 7.26562 3.25 6.95083 3.25 6.5625C3.25 6.17417 3.58578 5.85938 4 5.85938C4.41422 5.85938 4.75 6.17417 4.75 6.5625C4.75 6.95083 4.41422 7.26562 4 7.26562Z" fill="black"/>
</svg>
