<svg width="11" height="11" viewBox="0 0 11 11" fill="none" xmlns="http://www.w3.org/2000/svg">
<path d="M5.50123 2.67974C3.94049 2.67974 2.68159 3.93892 2.68159 5.5C2.68159 7.06108 3.94049 8.32026 5.50123 8.32026C7.06196 8.32026 8.32086 7.06108 8.32086 5.5C8.32086 3.93892 7.06196 2.67974 5.50123 2.67974ZM5.50123 7.33354C4.49264 7.33354 3.6681 6.51127 3.6681 5.5C3.6681 4.48873 4.49018 3.66646 5.50123 3.66646C6.51227 3.66646 7.33436 4.48873 7.33436 5.5C7.33436 6.51127 6.50982 7.33354 5.50123 7.33354ZM9.09387 2.56438C9.09387 2.9301 8.79939 3.22219 8.4362 3.22219C8.07055 3.22219 7.77853 2.92765 7.77853 2.56438C7.77853 2.2011 8.07301 1.90656 8.4362 1.90656C8.79939 1.90656 9.09387 2.2011 9.09387 2.56438ZM10.9613 3.23201C10.9196 2.35083 10.7184 1.57029 10.073 0.927201C9.43006 0.284112 8.64969 0.0828406 7.76871 0.0386589C6.86074 -0.0128863 4.13926 -0.0128863 3.23129 0.0386589C2.35276 0.080386 1.57239 0.281658 0.926994 0.924746C0.281595 1.56783 0.0828221 2.34838 0.0386503 3.22955C-0.0128834 4.13773 -0.0128834 6.85981 0.0386503 7.76799C0.0803681 8.64917 0.281595 9.42971 0.926994 10.0728C1.57239 10.7159 2.35031 10.9172 3.23129 10.9613C4.13926 11.0129 6.86074 11.0129 7.76871 10.9613C8.64969 10.9196 9.43006 10.7183 10.073 10.0728C10.716 9.42971 10.9172 8.64917 10.9613 7.76799C11.0129 6.85981 11.0129 4.14019 10.9613 3.23201ZM9.78834 8.74244C9.59693 9.22353 9.22638 9.59416 8.74294 9.78807C8.01902 10.0753 6.30123 10.009 5.50123 10.009C4.70123 10.009 2.98098 10.0728 2.25951 9.78807C1.77853 9.59662 1.40798 9.22598 1.21411 8.74244C0.926994 8.01835 0.993252 6.30018 0.993252 5.5C0.993252 4.69982 0.929448 2.97919 1.21411 2.25756C1.40552 1.77647 1.77607 1.40584 2.25951 1.21193C2.98344 0.924746 4.70123 0.991019 5.50123 0.991019C6.30123 0.991019 8.02147 0.927201 8.74294 1.21193C9.22393 1.40338 9.59448 1.77402 9.78834 2.25756C10.0755 2.98165 10.0092 4.69982 10.0092 5.5C10.0092 6.30018 10.0755 8.02081 9.78834 8.74244Z" fill="#818181"/>
</svg>
