<svg width="11" height="8" viewBox="0 0 11 8" fill="none" xmlns="http://www.w3.org/2000/svg">
<path d="M10.7916 2.64167C10.8754 2.57708 11 2.6375 11 2.73958V7C11 7.55208 10.5381 8 9.96875 8H1.03125C0.461914 8 0 7.55208 0 7V2.74167C0 2.6375 0.122461 2.57917 0.208398 2.64375C0.689648 3.00625 1.32773 3.46667 3.51914 5.01042C3.97246 5.33125 4.7373 6.00625 5.5 6.00208C6.26699 6.00833 7.04687 5.31875 7.48301 5.01042C9.67441 3.46667 10.3104 3.00417 10.7916 2.64167ZM5.5 5.33333C5.99844 5.34167 6.71602 4.725 7.07695 4.47083C9.92793 2.46458 10.1449 2.28958 10.8023 1.78958C10.927 1.69583 11 1.55 11 1.39583V1C11 0.447917 10.5381 0 9.96875 0H1.03125C0.461914 0 0 0.447917 0 1V1.39583C0 1.55 0.0730469 1.69375 0.197656 1.78958C0.855078 2.2875 1.07207 2.46458 3.92305 4.47083C4.28398 4.725 5.00156 5.34167 5.5 5.33333Z" fill="#818181"/>
</svg>
