<svg width="8" height="8" viewBox="0 0 8 8" fill="none" xmlns="http://www.w3.org/2000/svg">
<path d="M7.77172 5.65339L6.02172 4.90339C5.94696 4.87153 5.86387 4.86481 5.78497 4.88426C5.70607 4.9037 5.63561 4.94825 5.58422 5.0112L4.80922 5.95807C3.59293 5.3846 2.61409 4.40577 2.04063 3.18948L2.9875 2.41448C3.05057 2.36318 3.09522 2.29272 3.11467 2.21378C3.13412 2.13484 3.12733 2.05171 3.09531 1.97698L2.34531 0.226974C2.31017 0.146413 2.24803 0.0806373 2.16959 0.0409893C2.09115 0.00134128 2.00133 -0.00969398 1.91562 0.00978631L0.290625 0.384787C0.207995 0.403868 0.134273 0.450393 0.0814899 0.516769C0.0287071 0.583145 -1.90345e-05 0.665452 9.46282e-09 0.750256C9.46282e-09 4.75807 3.24844 8.00026 7.25 8.00026C7.33483 8.00032 7.41717 7.97161 7.48358 7.91882C7.54999 7.86604 7.59654 7.7923 7.61562 7.70964L7.99062 6.08464C8.00998 5.99852 7.99871 5.90834 7.95876 5.82963C7.9188 5.75092 7.85266 5.6886 7.77172 5.65339Z" fill="#818181"/>
</svg>
