<svg width="14" height="10" viewBox="0 0 14 10" fill="none" xmlns="http://www.w3.org/2000/svg">
<path d="M13.7075 1.56466C13.5464 0.948776 13.072 0.463724 12.4697 0.299115C11.3779 0 7 0 7 0C7 0 2.6221 0 1.53029 0.299115C0.927952 0.46375 0.453555 0.948776 0.292544 1.56466C0 2.68099 0 5.0101 0 5.0101C0 5.0101 0 7.33922 0.292544 8.45555C0.453555 9.07143 0.927952 9.53628 1.53029 9.70089C2.6221 10 7 10 7 10C7 10 11.3779 10 12.4697 9.70089C13.072 9.53628 13.5464 9.07143 13.7075 8.45555C14 7.33922 14 5.0101 14 5.0101C14 5.0101 14 2.68099 13.7075 1.56466ZM5.56817 7.12477V2.89544L9.22725 5.01016L5.56817 7.12477Z" fill="#818181"/>
</svg>
